<svg xmlns="http://www.w3.org/2000/svg" version="1.1" xmlns:xlink="http://www.w3.org/1999/xlink" xmlns:svgjs="http://svgjs.dev/svgjs" width="1440" height="560" preserveAspectRatio="none" viewBox="0 0 1440 560"><g mask="url(&quot;#SvgjsMask1025&quot;)" fill="none"><rect width="1440" height="560" x="0" y="0" fill="rgba(220, 220, 220, 1)"></rect><path d="M 0,2 C 96,55 288,263.6 480,267 C 672,270.4 768,31 960,19 C 1152,7 1344,169.4 1440,207L1440 560L0 560z" fill="rgba(169, 169, 169, 1)"></path><path d="M 0,332 C 72,355.2 216,433.8 360,448 C 504,462.2 576,400.6 720,403 C 864,405.4 936,484.2 1080,460 C 1224,435.8 1368,317.6 1440,282L1440 560L0 560z" fill="rgba(92, 92, 92, 1)"></path></g><defs><mask id="SvgjsMask1025"><rect width="1440" height="560" fill="#ffffff"></rect></mask></defs></svg>