<svg xmlns="http://www.w3.org/2000/svg" version="1.1" xmlns:xlink="http://www.w3.org/1999/xlink" xmlns:svgjs="http://svgjs.dev/svgjs" width="1440" height="560" preserveAspectRatio="none" viewBox="0 0 1440 560"><g mask="url(&quot;#SvgjsMask1005&quot;)" fill="none"><rect width="1440" height="560" x="0" y="0" fill="#0e2a47"></rect><path d="M 0,72 C 57.6,94.4 172.8,178.2 288,184 C 403.2,189.8 460.8,90.4 576,101 C 691.2,111.6 748.8,243 864,237 C 979.2,231 1036.8,86.4 1152,71 C 1267.2,55.6 1382.4,142.2 1440,160L1440 560L0 560z" fill="rgba(21, 65, 111, 1)"></path><path d="M 0,381 C 96,400.2 288,488 480,477 C 672,466 768,336.4 960,326 C 1152,315.6 1344,405.2 1440,425L1440 560L0 560z" fill="rgba(31, 79, 131, 1)"></path></g><defs><mask id="SvgjsMask1005"><rect width="1440" height="560" fill="#ffffff"></rect></mask></defs></svg>